<?xml version="1.0" encoding="utf-8"?>
<!-- Generator: Adobe Illustrator 25.1.0, SVG Export Plug-In . SVG Version: 6.00 Build 0)  -->
<svg version="1.1" id="Лого_1_" xmlns="http://www.w3.org/2000/svg" xmlns:xlink="http://www.w3.org/1999/xlink" x="0px"
	 y="0px" viewBox="0 0 212 45" style="enable-background:new 0 0 212 45;" xml:space="preserve">
<style type="text/css">
	.st0{fill-rule:evenodd;clip-rule:evenodd;fill:#28A87F;}
	.st1{fill-rule:evenodd;clip-rule:evenodd;fill:#FFFFFF;}
	.st2{enable-background:new    ;}
	.st3{fill:#19191A;}
</style>
<g id="Прямоугольник_3">
	<g>
		<path class="st0" d="M21,1.5L21,1.5c-11.6,0-21,9.4-21,21v21h21l0,0c11.6,0,21-9.4,21-21v-21H21z"/>
	</g>
</g>
<g id="Forma_1">
	<g>
		<path class="st1" d="M22.4,29.6l-9.5-3.1c-0.2-0.1-0.4-0.1-0.6,0c-0.2,0.1-0.3,0.2-0.4,0.4c-0.5,1.6-0.8,3-0.9,4.7
			c-0.1,1.5,0.3,2.8,1.2,3.8c0.4,0.5,0.9,0.9,1.4,1.2c0.7,0.4,1.6,0.7,2.6,0.8c1.8,0.2,3.4-0.6,4.7-2.1c1.1-1.3,1.8-3,2-5
			C23,30.1,22.7,29.8,22.4,29.6z M16.3,36c-2.4-0.2-3.9-1.9-3.8-4.2c0.1-1.3,0.3-2.4,0.7-3.7l8.1,2.6C20.7,33.7,18.9,36.3,16.3,36z
			 M27.3,8.3c-2.1-1-4.4-1-6.6,0.1c-3.8,1.9-6.7,6.5-7.3,11.5V20c0,0.1,0,0.1,0,0.2c-0.1,1.1-0.6,2.9-0.7,3.6
			c-0.1,0.3,0.1,0.7,0.4,0.8c0,0,0.1,0,0.1,0.1l10.7,3.5c0.3,0.1,0.7,0,0.9-0.3l0.3-0.3c0.8-1,1.8-2.4,2.4-3.1
			c1.6-1.9,3.1-4.9,3.6-7.6C31.4,13.8,30.6,9.9,27.3,8.3z M21.4,9.7c1.2-0.6,3.2-1.2,5.2-0.1c0.1,0,0.1,0.1,0.2,0.1
			c1.6,0.9,2.4,2.6,2.7,4.4l-1.9,0.2c-0.2,0-0.5-0.1-0.6-0.2l-1.5-1.3c-0.5-0.5-1.2-0.7-1.9-0.6l-1.9,0.2c-0.2,0-0.5-0.1-0.6-0.2
			L19.7,11C20.2,10.4,20.7,10,21.4,9.7z M23.6,26.5l-9.4-3c0.2-0.9,0.5-1.9,0.6-2.8h0.1c0.2,0,0.5,0.1,0.6,0.2l1.5,1.3
			c0.5,0.5,1.2,0.7,1.9,0.6l1.9-0.2c0.2,0,0.5,0.1,0.6,0.2l1.5,1.3c0.5,0.5,1.2,0.7,1.9,0.6H25C24.6,25.3,24.1,25.9,23.6,26.5z
			 M29.3,16.5c-0.5,2.4-1.6,4.9-3,6.6l-1.8,0.2c-0.2,0-0.5-0.1-0.6-0.2l-1.5-1.3c-0.5-0.5-1.2-0.7-1.9-0.6l-1.9,0.2
			c-0.2,0-0.5-0.1-0.6-0.2l-1.5-1.3c-0.4-0.4-1-0.6-1.5-0.6c0.2-1,0.5-2,0.9-3h0.5c0.2,0,0.5,0.1,0.6,0.2l1.5,1.3
			c0.5,0.5,1.2,0.7,1.9,0.6l1.9-0.2c0.2,0,0.5,0.1,0.6,0.2l0.6,0.6c0.3,0.3,0.8,0.3,1.1,0c0.3-0.3,0.3-0.8,0-1L24,17.4
			c-0.5-0.5-1.2-0.7-1.9-0.6L20.2,17c-0.2,0-0.5-0.1-0.6-0.2L18,15.3c-0.4-0.4-0.9-0.6-1.4-0.6c0.6-1,1.2-2,2-2.8l1.4,1.2
			c0.1,0.1,0.3,0.2,0.4,0.3c0.4,0.2,0.9,0.4,1.5,0.3l1.9-0.2c0.2,0,0.5,0.1,0.6,0.2l1.5,1.3c0.5,0.5,1.2,0.7,1.9,0.6l1.7-0.2
			C29.4,15.8,29.4,16.1,29.3,16.5z M27.3,19.1L27.2,19l-0.1-0.1c-0.1-0.1-0.2-0.1-0.3-0.1h-0.1c-0.1,0-0.1,0-0.2,0s-0.1,0-0.1,0
			h-0.1c0,0-0.1,0-0.1,0.1L26.1,19L26,19.1c-0.1,0.2-0.1,0.4-0.1,0.6c0,0,0,0.1,0.1,0.1l0.1,0.1l0.1,0.1l0.1,0.1c0,0,0.1,0,0.1,0.1
			h0.1c0,0,0.1,0,0.2,0s0.1,0,0.1,0c0.2,0,0.4-0.2,0.5-0.3c0,0,0-0.1,0.1-0.1v-0.1v-0.1v-0.1C27.3,19.2,27.3,19.2,27.3,19.1z"/>
	</g>
</g>
<g id="birkoshop">
	<g class="st2">
		<path class="st3" d="M56.6,29.7v2.2h-4.7V9.2h4.7v8.4c1.1-1.6,2.7-2.7,5.2-2.7c3.9,0,7.6,3,7.6,8.7c0,5.5-3.6,8.6-7.6,8.6
			C59.3,32.1,57.7,31,56.6,29.7z M64.6,23.5c0-2.8-1.9-4.6-4.1-4.6s-4,1.8-4,4.7c0,2.8,1.8,4.6,4,4.6S64.6,26.3,64.6,23.5z"/>
	</g>
	<g class="st2">
		<path class="st3" d="M73.6,9.2h5v4.2h-5V9.2z M73.7,15.2h4.7v16.6h-4.7V15.2z"/>
	</g>
	<g class="st2">
		<path class="st3" d="M83.1,15.2h4.7v3.3c1-2.3,2.5-3.8,5.3-3.7v4.9h-0.2c-3.1,0-5.1,1.9-5.1,5.9v6.1h-4.7V15.2z"/>
	</g>
	<g class="st2">
		<path class="st3" d="M96.8,9.2h4.7v12.1l5.5-6h5.6l-6.3,6.5l6.5,10.1h-5.4l-4.3-6.8l-1.6,1.7v5.1h-4.7V9.2z"/>
	</g>
	<g class="st2">
		<path class="st3" d="M114.6,23.6c0-4.8,3.8-8.7,9-8.7c5.1,0,9,3.8,9,8.7c0,4.8-3.8,8.7-9,8.7C118.4,32.2,114.6,28.4,114.6,23.6z
			 M127.9,23.6c0-2.5-1.8-4.6-4.4-4.6c-2.7,0-4.3,2.1-4.3,4.6c0,2.4,1.8,4.6,4.4,4.6C126.3,28.1,127.9,26.1,127.9,23.6z"/>
	</g>
	<g class="st2">
		<path class="st3" d="M134.7,29.6l2-3.1c1.8,1.3,3.7,2,5.2,2c1.4,0,2-0.5,2-1.3c0-1-1.6-1.4-3.4-1.9c-2.3-0.7-5-1.8-5-5.1
			c0-3.4,2.7-5.3,6.1-5.3c2.1,0,4.4,0.7,6.2,1.9l-1.8,3.3c-1.6-1-3.3-1.5-4.5-1.5c-1.1,0-1.7,0.5-1.7,1.2c0,0.9,1.6,1.4,3.4,2
			c2.3,0.8,5,1.9,5,5c0,3.7-2.8,5.4-6.4,5.4C139.5,32.1,136.9,31.4,134.7,29.6z"/>
	</g>
	<g class="st2">
		<path class="st3" d="M152.6,9.2h4.7v8.4c1.1-1.4,2.5-2.7,4.9-2.7c3.6,0,5.6,2.4,5.6,6.2v10.8h-4.7v-9.3c0-2.2-1.1-3.4-2.9-3.4
			c-1.8,0-2.9,1.1-2.9,3.4v9.3h-4.7V9.2z"/>
	</g>
	<g class="st2">
		<path class="st3" d="M171.4,23.6c0-4.8,3.8-8.7,9-8.7c5.1,0,9,3.8,9,8.7c0,4.8-3.8,8.7-9,8.7C175.2,32.2,171.4,28.4,171.4,23.6z
			 M184.7,23.6c0-2.5-1.8-4.6-4.4-4.6c-2.7,0-4.3,2.1-4.3,4.6c0,2.4,1.8,4.6,4.4,4.6C183.1,28.1,184.7,26.1,184.7,23.6z"/>
	</g>
	<g class="st2">
		<path class="st3" d="M192.9,15.2h4.7v2.4c1.1-1.6,2.7-2.7,5.2-2.7c3.9,0,7.6,3,7.6,8.7c0,5.5-3.6,8.6-7.6,8.6
			c-2.5,0-4.1-1.1-5.2-2.5v7.1h-4.7V15.2z M205.6,23.5c0-2.8-1.9-4.6-4.1-4.6s-4,1.8-4,4.7c0,2.8,1.8,4.6,4,4.6
			S205.6,26.3,205.6,23.5z"/>
	</g>
</g>
</svg>
