<svg version="1.1" id="Лого_1_" xmlns="http://www.w3.org/2000/svg" x="0" y="0" viewBox="0 0 212 45" xml:space="preserve">
	<style>.st2{fill:#19191a}.st3{font-family:&apos;GothamPro-Medium&apos;}.st4{font-size:31px}</style>
	<path d="M23 2C11.4 2 2 11.4 2 23v21h21c11.6 0 21-9.4 21-21V2H23z" fill-rule="evenodd" clip-rule="evenodd" fill="#28a87f" id="Прямоугольник_3"/>
	<path d="M24.4 30.1L14.9 27c-.2-.1-.4-.1-.6 0-.2.1-.3.2-.4.4-.5 1.6-.8 3-.9 4.7-.1 1.5.3 2.8 1.2 3.8.4.5.9.9 1.4 1.2.7.4 1.6.7 2.6.8 1.8.2 3.4-.6 4.7-2.1 1.1-1.3 1.8-3 2-5 .1-.2-.2-.5-.5-.7zm-6.1 6.4c-2.4-.2-3.9-1.9-3.8-4.2.1-1.3.3-2.4.7-3.7l8.1 2.6c-.6 3-2.4 5.6-5 5.3zm11-27.7c-2.1-1-4.4-1-6.6.1-3.8 1.9-6.7 6.5-7.3 11.5V20.7c-.1 1.1-.6 2.9-.7 3.6-.1.3.1.7.4.8 0 0 .1 0 .1.1l10.7 3.5c.3.1.7 0 .9-.3l.3-.3c.8-1 1.8-2.4 2.4-3.1 1.6-1.9 3.1-4.9 3.6-7.6.3-3.1-.5-7-3.8-8.6zm-5.9 1.4c1.2-.6 3.2-1.2 5.2-.1.1 0 .1.1.2.1 1.6.9 2.4 2.6 2.7 4.4l-1.9.2c-.2 0-.5-.1-.6-.2l-1.5-1.3c-.5-.5-1.2-.7-1.9-.6l-1.9.2c-.2 0-.5-.1-.6-.2l-1.4-1.2c.5-.6 1-1 1.7-1.3zM25.6 27l-9.4-3c.2-.9.5-1.9.6-2.8h.1c.2 0 .5.1.6.2l1.5 1.3c.5.5 1.2.7 1.9.6l1.9-.2c.2 0 .5.1.6.2l1.5 1.3c.5.5 1.2.7 1.9.6h.2c-.4.6-.9 1.2-1.4 1.8zm5.7-10c-.5 2.4-1.6 4.9-3 6.6l-1.8.2c-.2 0-.5-.1-.6-.2l-1.5-1.3c-.5-.5-1.2-.7-1.9-.6l-1.9.2c-.2 0-.5-.1-.6-.2l-1.5-1.3c-.4-.4-1-.6-1.5-.6.2-1 .5-2 .9-3h.5c.2 0 .5.1.6.2l1.5 1.3c.5.5 1.2.7 1.9.6l1.9-.2c.2 0 .5.1.6.2l.6.6c.3.3.8.3 1.1 0 .3-.3.3-.8 0-1l-.6-.6c-.5-.5-1.2-.7-1.9-.6l-1.9.2c-.2 0-.5-.1-.6-.2L20 15.8c-.4-.4-.9-.6-1.4-.6.6-1 1.2-2 2-2.8l1.4 1.2c.1.1.3.2.4.3.4.2.9.4 1.5.3l1.9-.2c.2 0 .5.1.6.2l1.5 1.3c.5.5 1.2.7 1.9.6l1.7-.2c-.1.4-.1.7-.2 1.1zm-2 2.6l-.1-.1-.1-.1c-.1-.1-.2-.1-.3-.1h-.4-.1s-.1 0-.1.1l-.1.1-.1.1c-.1.2-.1.4-.1.6 0 0 0 .1.1.1l.1.1.1.1.1.1s.1 0 .1.1h.4c.2 0 .4-.2.5-.3 0 0 0-.1.1-.1v-.1-.1-.1c-.1-.3-.1-.3-.1-.4z" fill-rule="evenodd" clip-rule="evenodd" fill="#fff" id="Forma_1"/>
	<text transform="translate(53 32)" id="birkoshop">
		<tspan x="0" y="0" class="st2 st3 st4">b</tspan>
		<tspan x="21.6" y="0" class="st2 st3 st4">i</tspan>
		<tspan x="31.2" y="0" class="st2 st3 st4">r</tspan>
		<tspan x="44.9" y="0" class="st2 st3 st4">k</tspan>
		<tspan x="63.5" y="0" class="st2 st3 st4">o</tspan>
		<tspan x="84.1" y="0" class="st2 st3 st4" letter-spacing="1">s</tspan>
		<tspan x="100.7" y="0" class="st2 st3 st4">h</tspan>
		<tspan x="120.3" y="0" class="st2 st3 st4">o</tspan>
		<tspan x="141" y="0" class="st2 st3 st4">p</tspan>
	</text>
</svg>