<?xml version="1.0" standalone="no"?>
<!DOCTYPE svg PUBLIC "-//W3C//DTD SVG 20010904//EN"
 "http://www.w3.org/TR/2001/REC-SVG-20010904/DTD/svg10.dtd">
<svg version="1.0" xmlns="http://www.w3.org/2000/svg"
 width="300.000000pt" height="300.000000pt" viewBox="0 0 300.000000 300.000000"
 preserveAspectRatio="xMidYMid meet">

<g transform="translate(0.000000,300.000000) scale(0.100000,-0.100000)"
fill="#000000" stroke="none">
<path d="M0 1500 l0 -1500 1500 0 1500 0 0 1500 0 1500 -1500 0 -1500 0 0
-1500z m1108 593 c-3 -397 -5 -442 -21 -478 -23 -51 -61 -91 -112 -118 -55
-28 -182 -35 -256 -13 -51 15 -179 83 -179 95 0 3 15 23 33 44 l32 38 88 -46
c131 -67 206 -60 271 28 20 28 21 40 24 458 l3 429 60 0 60 0 -3 -437z m373
27 c59 -223 110 -418 114 -435 6 -30 43 116 172 677 l38 168 62 0 c57 0 63 -2
68 -22 3 -13 48 -207 99 -431 52 -225 96 -411 99 -413 2 -2 10 22 17 53 10 46
103 407 201 776 l10 37 60 0 61 0 -7 -27 c-13 -53 -266 -968 -276 -1001 l-11
-33 -61 3 -61 3 -58 245 c-31 135 -73 317 -93 405 -52 232 -46 218 -57 165 -5
-25 -50 -217 -99 -427 -49 -209 -89 -384 -89 -387 0 -3 -29 -6 -64 -6 -58 0
-64 2 -70 23 -8 34 -275 998 -282 1019 -5 17 0 19 58 16 l63 -3 106 -405z
m-471 -951 c131 -39 220 -183 220 -354 0 -215 -133 -367 -321 -368 -221 -1
-348 146 -337 392 4 108 29 178 87 244 82 93 217 126 351 86z m1396 2 c25 -6
29 -13 32 -49 l3 -42 -33 8 c-18 4 -78 7 -133 7 -83 0 -107 -4 -141 -22 -93
-49 -144 -131 -152 -244 -9 -124 40 -224 132 -271 43 -23 189 -37 241 -24 25
6 25 8 25 106 l0 100 -80 0 -80 0 0 45 0 45 125 0 125 0 0 -175 0 -175 -25
-10 c-50 -19 -180 -29 -250 -19 -134 19 -216 73 -267 177 -31 63 -33 72 -33
177 0 98 3 116 26 166 69 147 213 226 390 213 36 -3 79 -8 95 -13z m-747 -17
c181 -53 205 -280 39 -365 -21 -10 -44 -19 -53 -19 -31 0 -27 -7 143 -247 l44
-63 -49 0 -48 1 -105 144 -105 144 -52 1 -53 0 0 -145 0 -145 -45 0 -45 0 0
355 0 355 138 0 c96 0 154 -5 191 -16z m-1161 -641 l3 -53 -55 0 -56 0 0 56 0
55 53 -3 52 -3 3 -52z"/>
<path d="M792 1079 c-93 -46 -137 -143 -130 -287 5 -108 39 -179 106 -227 40
-27 51 -30 126 -30 74 0 87 3 132 30 37 24 56 44 79 90 27 54 30 67 30 159 0
90 -3 107 -28 158 -43 88 -109 128 -210 128 -43 0 -75 -7 -105 -21z"/>
<path d="M1420 959 l0 -132 97 7 c147 11 193 43 193 136 0 29 -7 48 -27 70
-33 37 -79 49 -185 50 l-78 0 0 -131z"/>
</g>
</svg>
