<?xml version="1.0" encoding="utf-8"?><svg xmlns="http://www.w3.org/2000/svg" xmlns:xlink="http://www.w3.org/1999/xlink"><symbol viewBox="0 0 129 129" id="arrow_dwn_svg" xmlns="http://www.w3.org/2000/svg"><path d="M121.3 34.6c-1.6-1.6-4.2-1.6-5.8 0l-51 51.1-51.1-51.1c-1.6-1.6-4.2-1.6-5.8 0-1.6 1.6-1.6 4.2 0 5.8l53.9 53.9c.8.8 1.8 1.2 2.9 1.2 1 0 2.1-.4 2.9-1.2l53.9-53.9c1.7-1.6 1.7-4.2.1-5.8z"/></symbol><symbol viewBox="0 0 129 129" id="arrow_r_svg" xmlns="http://www.w3.org/2000/svg"><path d="M40.4 121.3c-.8.8-1.8 1.2-2.9 1.2s-2.1-.4-2.9-1.2c-1.6-1.6-1.6-4.2 0-5.8l51-51-51-51c-1.6-1.6-1.6-4.2 0-5.8 1.6-1.6 4.2-1.6 5.8 0l53.9 53.9c1.6 1.6 1.6 4.2 0 5.8l-53.9 53.9z"/></symbol><symbol viewBox="0 0 320 512" id="close_svg" xmlns="http://www.w3.org/2000/svg"><path d="M193.94 256L296.5 153.44l21.15-21.15c3.12-3.12 3.12-8.19 0-11.31l-22.63-22.63c-3.12-3.12-8.19-3.12-11.31 0L160 222.06 36.29 98.34c-3.12-3.12-8.19-3.12-11.31 0L2.34 120.97c-3.12 3.12-3.12 8.19 0 11.31L126.06 256 2.34 379.71c-3.12 3.12-3.12 8.19 0 11.31l22.63 22.63c3.12 3.12 8.19 3.12 11.31 0L160 289.94 262.56 392.5l21.15 21.15c3.12 3.12 8.19 3.12 11.31 0l22.63-22.63c3.12-3.12 3.12-8.19 0-11.31L193.94 256z"/></symbol><symbol viewBox="0 0 277.112 277.112" id="house" xmlns="http://www.w3.org/2000/svg"><path d="M266.339 124.055L144.92 2.636a9 9 0 00-12.728 0L91 43.828v-7.232a9 9 0 00-9-9H54.928a9 9 0 00-9 9v52.305l-35.154 35.154a9 9 0 000 12.728 9 9 0 0012.728 0L138.556 21.728l115.055 115.055c1.757 1.757 4.061 2.636 6.364 2.636s4.606-.879 6.364-2.636a9 9 0 000-12.728zM63.928 45.595H73v16.232L63.927 70.9V45.595z"/><path d="M144.92 47.058a9 9 0 00-12.728 0L32.084 147.166a9 9 0 00-2.636 6.364v114.582a9 9 0 009 9h73.369a9 9 0 009-9v-55.826h35.479v55.826a9 9 0 009 9h73.368a9 9 0 009-9V153.53a9 9 0 00-2.636-6.364L144.92 47.058zm84.744 212.054h-55.368v-55.826a9 9 0 00-9-9h-53.479a9 9 0 00-9 9v55.826H47.448V157.258l91.108-91.108 91.108 91.108v101.854z"/></symbol><symbol viewBox="0 0 300 300" id="jw-logo" xmlns="http://www.w3.org/2000/svg"><path d="M0 150v150h300V0H0v150zm110.8-59.3c-.3 39.7-.5 44.2-2.1 47.8-2.3 5.1-6.1 9.1-11.2 11.8-5.5 2.8-18.2 3.5-25.6 1.3-5.1-1.5-17.9-8.3-17.9-9.5 0-.3 1.5-2.3 3.3-4.4l3.2-3.8 8.8 4.6c13.1 6.7 20.6 6 27.1-2.8 2-2.8 2.1-4 2.4-45.8l.3-42.9h12l-.3 43.7zm37.3-2.7c5.9 22.3 11 41.8 11.4 43.5.6 3 4.3-11.6 17.2-67.7l3.8-16.8h6.2c5.7 0 6.3.2 6.8 2.2.3 1.3 4.8 20.7 9.9 43.1 5.2 22.5 9.6 41.1 9.9 41.3.2.2 1-2.2 1.7-5.3 1-4.6 10.3-40.7 20.1-77.6l1-3.7h12.1l-.7 2.7c-1.3 5.3-26.6 96.8-27.6 100.1l-1.1 3.3-6.1-.3-6.1-.3-5.8-24.5c-3.1-13.5-7.3-31.7-9.3-40.5-5.2-23.2-4.6-21.8-5.7-16.5-.5 2.5-5 21.7-9.9 42.7-4.9 20.9-8.9 38.4-8.9 38.7 0 .3-2.9.6-6.4.6-5.8 0-6.4-.2-7-2.3-.8-3.4-27.5-99.8-28.2-101.9-.5-1.7 0-1.9 5.8-1.6l6.3.3L148.1 88zM101 183.1c13.1 3.9 22 18.3 22 35.4 0 21.5-13.3 36.7-32.1 36.8-22.1.1-34.8-14.6-33.7-39.2.4-10.8 2.9-17.8 8.7-24.4 8.2-9.3 21.7-12.6 35.1-8.6zm139.6-.2c2.5.6 2.9 1.3 3.2 4.9l.3 4.2-3.3-.8c-1.8-.4-7.8-.7-13.3-.7-8.3 0-10.7.4-14.1 2.2-9.3 4.9-14.4 13.1-15.2 24.4-.9 12.4 4 22.4 13.2 27.1 4.3 2.3 18.9 3.7 24.1 2.4 2.5-.6 2.5-.8 2.5-10.6v-10h-16v-9h25v35l-2.5 1c-5 1.9-18 2.9-25 1.9-13.4-1.9-21.6-7.3-26.7-17.7-3.1-6.3-3.3-7.2-3.3-17.7 0-9.8.3-11.6 2.6-16.6 6.9-14.7 21.3-22.6 39-21.3 3.6.3 7.9.8 9.5 1.3zm-74.7 1.7c18.1 5.3 20.5 28 3.9 36.5-2.1 1-4.4 1.9-5.3 1.9-3.1 0-2.7.7 14.3 24.7l4.4 6.3h-4.9l-4.8-.1-10.5-14.4-10.5-14.4-5.2-.1H142v29h-9v-71h13.8c9.6 0 15.4.5 19.1 1.6zM49.8 248.7l.3 5.3H39v-11.1l5.3.3 5.2.3.3 5.2z"/><path d="M79.2 192.1c-9.3 4.6-13.7 14.3-13 28.7.5 10.8 3.9 17.9 10.6 22.7 4 2.7 5.1 3 12.6 3 7.4 0 8.7-.3 13.2-3 3.7-2.4 5.6-4.4 7.9-9 2.7-5.4 3-6.7 3-15.9 0-9-.3-10.7-2.8-15.8-4.3-8.8-10.9-12.8-21-12.8-4.3 0-7.5.7-10.5 2.1zm62.8 12v13.2l9.7-.7c14.7-1.1 19.3-4.3 19.3-13.6 0-2.9-.7-4.8-2.7-7-3.3-3.7-7.9-4.9-18.5-5H142v13.1z"/></symbol><symbol viewBox="0 0 399.36 399.36" id="menu_svg" xmlns="http://www.w3.org/2000/svg"><path d="M0 0h179.2v179.2H0zm220.16 0h179.2v179.2h-179.2zM0 220.16h179.2v179.2H0zm220.16 0h179.2v179.2h-179.2z"/></symbol><symbol viewBox="0 0 430.114 430.114" id="place_svg" xmlns="http://www.w3.org/2000/svg"><path d="M356.208 107.051c-1.531-5.738-4.64-11.852-6.94-17.205C321.746 23.704 261.611 0 213.055 0 148.054 0 76.463 43.586 66.905 133.427v18.355c0 .766.264 7.647.639 11.089 5.358 42.816 39.143 88.32 64.375 131.136 27.146 45.873 55.314 90.999 83.221 136.106 17.208-29.436 34.354-59.259 51.17-87.933 4.583-8.415 9.903-16.825 14.491-24.857 3.058-5.348 8.9-10.696 11.569-15.672 27.145-49.699 70.838-99.782 70.838-149.104v-20.262c.001-5.347-6.627-24.081-7-25.234zm-141.963 92.142c-19.107 0-40.021-9.554-50.344-35.939-1.538-4.2-1.414-12.617-1.414-13.388v-11.852c0-33.636 28.56-48.932 53.406-48.932 30.588 0 54.245 24.472 54.245 55.06 0 30.587-25.305 55.051-55.893 55.051z"/></symbol><symbol viewBox="0 0 489.533 489.533" id="reload_svg" xmlns="http://www.w3.org/2000/svg"><path d="M268.175 488.161c98.2-11 176.9-89.5 188.1-187.7 14.7-128.4-85.1-237.7-210.2-239.1v-57.6c0-3.2-4-4.9-6.7-2.9l-118.6 87.1c-2 1.5-2 4.4 0 5.9l118.6 87.1c2.7 2 6.7.2 6.7-2.9v-57.5c87.9 1.4 158.3 76.2 152.3 165.6-5.1 76.9-67.8 139.3-144.7 144.2-81.5 5.2-150.8-53-163.2-130-2.3-14.3-14.8-24.7-29.2-24.7-17.9 0-31.9 15.9-29.1 33.6 17.4 109.7 118.7 192 236 178.9z"/></symbol><symbol viewBox="0 0 30.239 30.239" id="search_svg" xmlns="http://www.w3.org/2000/svg"><path d="M20.194 3.46c-4.613-4.613-12.121-4.613-16.734 0-4.612 4.614-4.612 12.121 0 16.735 4.108 4.107 10.506 4.547 15.116 1.34.097.459.319.897.676 1.254l6.718 6.718a2.498 2.498 0 003.535 0 2.496 2.496 0 000-3.535l-6.718-6.72a2.5 2.5 0 00-1.253-.674c3.209-4.611 2.769-11.008-1.34-15.118zm-2.121 14.614c-3.444 3.444-9.049 3.444-12.492 0-3.442-3.444-3.442-9.048 0-12.492 3.443-3.443 9.048-3.443 12.492 0 3.444 3.444 3.444 9.048 0 12.492z"/></symbol><symbol viewBox="0 0 19.5 19.5" id="star2_svg" xmlns="http://www.w3.org/2000/svg"><path d="M10.2.8l2.5 5.8 6.3.6c.5 0 .6.6.3.8l-4.8 4.2 1.4 6.2c.1.4-.3.8-.7.6l-5.5-3.3L4.3 19a.5.5 0 01-.8-.6L5 12.2.2 8a.5.5 0 01.3-.8l6.3-.6L9.3.8c.2-.5.7-.5.9 0z"/></symbol><symbol viewBox="0 0 487.2 487.2" id="star_svg" xmlns="http://www.w3.org/2000/svg"><path d="M486.6 186.8a13.6 13.6 0 00-11-9.2l-152-21.6-68.3-137.5a13.5 13.5 0 00-24.2.1l-67.5 138-152 22.5c-5.1.8-9.3 4.3-11 9.2s-.1 10.3 3.6 13.8l110.3 107L89 460.3a13.3 13.3 0 005.4 13.2 13.4 13.4 0 0014.2 1l135.7-71.9 136 71.1a13.6 13.6 0 0019.3-15.1l-26.2-150.5L483 200.7c3.9-3.6 5.2-9 3.6-13.9zM349.6 294a13.3 13.3 0 00-3.8 12l22.9 131.3-118.2-61.7c-4-2-8.6-2-12.6 0L120 438l22-131.5c.8-4.4-.6-8.8-3.8-11.9l-95.6-92.8 131.9-19.6c4.4-.7 8.2-3.4 10-7.4L243.4 55l59.4 119.4c2 4 5.8 6.7 10.2 7.4l132 18.8-95.3 93.3z"/></symbol><symbol viewBox="0 0 563.43 563.43" id="user_svg" xmlns="http://www.w3.org/2000/svg"><path d="M280.79 314.559c83.266 0 150.803-67.538 150.803-150.803S364.055 13.415 280.79 13.415 129.987 80.953 129.987 163.756s67.537 150.803 150.803 150.803zm0-261.824c61.061 0 111.021 49.959 111.021 111.021s-49.96 111.02-111.021 111.02-111.021-49.959-111.021-111.021 49.959-111.02 111.021-111.02zM19.891 550.015h523.648c11.102 0 19.891-8.789 19.891-19.891 0-104.082-84.653-189.198-189.198-189.198H189.198C85.116 340.926 0 425.579 0 530.124c0 11.102 8.789 19.891 19.891 19.891zm169.307-169.307h185.034c75.864 0 138.313 56.436 148.028 129.524H41.17c9.714-72.625 72.164-129.524 148.028-129.524z"/></symbol></svg>