<?xml version="1.0" encoding="utf-8"?>
<!-- Generator: Adobe Illustrator 22.0.1, SVG Export Plug-In . SVG Version: 6.00 Build 0)  -->
<svg version="1.1" id="Лого_1_" xmlns="http://www.w3.org/2000/svg" xmlns:xlink="http://www.w3.org/1999/xlink" x="0px"
	 y="0px" viewBox="0 0 42 42" style="enable-background:new 0 0 42 42;" xml:space="preserve">
<style type="text/css">
	.st0{fill:#28A87F;}
	.st1{fill:#FFFFFF;}
</style>
<g id="Прямоугольник_3">
	<g>
		<path class="st0" d="M21,0L21,0C9.4,0,0,9.4,0,21v21h21l0,0c11.6,0,21-9.4,21-21V0H21z"/>
	</g>
</g>
<g id="Forma_1">
	<g>
		<path class="st1" d="M22.4,28.1L12.9,25c-0.2-0.1-0.4-0.1-0.6,0c-0.2,0.1-0.3,0.2-0.4,0.4c-0.5,1.6-0.8,3-0.9,4.7
			c-0.1,1.5,0.3,2.8,1.2,3.8c0.4,0.5,0.9,0.9,1.4,1.2c0.7,0.4,1.6,0.7,2.6,0.8c1.8,0.2,3.4-0.6,4.7-2.1c1.1-1.3,1.8-3,2-5
			C23,28.6,22.7,28.3,22.4,28.1z M16.3,34.5c-2.4-0.2-3.9-1.9-3.8-4.2c0.1-1.3,0.3-2.4,0.7-3.7l8.1,2.6
			C20.7,32.2,18.9,34.8,16.3,34.5z M27.3,6.8c-2.1-1-4.4-1-6.6,0.1c-3.8,1.9-6.7,6.5-7.3,11.5v0.1c0,0.1,0,0.1,0,0.2
			c-0.1,1.1-0.6,2.9-0.7,3.6c-0.1,0.3,0.1,0.7,0.4,0.8c0,0,0.1,0,0.1,0.1l10.7,3.5c0.3,0.1,0.7,0,0.9-0.3l0.3-0.3
			c0.8-1,1.8-2.4,2.4-3.1c1.6-1.9,3.1-4.9,3.6-7.6C31.4,12.3,30.6,8.4,27.3,6.8z M21.4,8.2c1.2-0.6,3.2-1.2,5.2-0.1
			c0.1,0,0.1,0.1,0.2,0.1c1.6,0.9,2.4,2.6,2.7,4.4l-1.9,0.2c-0.2,0-0.5-0.1-0.6-0.2l-1.5-1.3c-0.5-0.5-1.2-0.7-1.9-0.6l-1.9,0.2
			c-0.2,0-0.5-0.1-0.6-0.2l-1.4-1.2C20.2,8.9,20.7,8.5,21.4,8.2z M23.6,25l-9.4-3c0.2-0.9,0.5-1.9,0.6-2.8h0.1
			c0.2,0,0.5,0.1,0.6,0.2l1.5,1.3c0.5,0.5,1.2,0.7,1.9,0.6l1.9-0.2c0.2,0,0.5,0.1,0.6,0.2l1.5,1.3c0.5,0.5,1.2,0.7,1.9,0.6H25
			C24.6,23.8,24.1,24.4,23.6,25z M29.3,15c-0.5,2.4-1.6,4.9-3,6.6l-1.8,0.2c-0.2,0-0.5-0.1-0.6-0.2l-1.5-1.3
			c-0.5-0.5-1.2-0.7-1.9-0.6l-1.9,0.2c-0.2,0-0.5-0.1-0.6-0.2l-1.5-1.3c-0.4-0.4-1-0.6-1.5-0.6c0.2-1,0.5-2,0.9-3h0.5
			c0.2,0,0.5,0.1,0.6,0.2l1.5,1.3c0.5,0.5,1.2,0.7,1.9,0.6l1.9-0.2c0.2,0,0.5,0.1,0.6,0.2l0.6,0.6c0.3,0.3,0.8,0.3,1.1,0
			c0.3-0.3,0.3-0.8,0-1L24,15.9c-0.5-0.5-1.2-0.7-1.9-0.6l-1.9,0.2c-0.2,0-0.5-0.1-0.6-0.2L18,13.8c-0.4-0.4-0.9-0.6-1.4-0.6
			c0.6-1,1.2-2,2-2.8l1.4,1.2c0.1,0.1,0.3,0.2,0.4,0.3c0.4,0.2,0.9,0.4,1.5,0.3l1.9-0.2c0.2,0,0.5,0.1,0.6,0.2l1.5,1.3
			c0.5,0.5,1.2,0.7,1.9,0.6l1.7-0.2C29.4,14.3,29.4,14.6,29.3,15z M27.3,17.6l-0.1-0.1l-0.1-0.1c-0.1-0.1-0.2-0.1-0.3-0.1h-0.1
			c-0.1,0-0.1,0-0.2,0s-0.1,0-0.1,0h-0.1c0,0-0.1,0-0.1,0.1l-0.1,0.1L26,17.6c-0.1,0.2-0.1,0.4-0.1,0.6c0,0,0,0.1,0.1,0.1l0.1,0.1
			l0.1,0.1l0.1,0.1c0,0,0.1,0,0.1,0.1h0.1c0,0,0.1,0,0.2,0s0.1,0,0.1,0c0.2,0,0.4-0.2,0.5-0.3c0,0,0-0.1,0.1-0.1v-0.1v-0.1V18
			C27.3,17.7,27.3,17.7,27.3,17.6z"/>
	</g>
</g>
</svg>
