<?xml version="1.0" encoding="utf-8"?>
<!-- Generator: Adobe Illustrator 21.0.0, SVG Export Plug-In . SVG Version: 6.00 Build 0)  -->
<svg version="1.1" id="Лого_1_" xmlns="http://www.w3.org/2000/svg" xmlns:xlink="http://www.w3.org/1999/xlink" x="0px"
	 y="0px" viewBox="0 0 212 45" style="enable-background:new 0 0 212 45;" xml:space="preserve">
<style type="text/css">
	.st0{fill-rule:evenodd;clip-rule:evenodd;fill:#28A87F;}
	.st1{fill-rule:evenodd;clip-rule:evenodd;fill:#FFFFFF;}
	.st2{fill:#19191A;}
	.st3{font-family:'GothamPro-Medium';}
	.st4{font-size:31px;}
	.st5{letter-spacing:1;}
</style>
<g id="Прямоугольник_3">
	<g>
		<path class="st0" d="M23,2C23,2,23,2,23,2C11.4,2,2,11.4,2,23v21h21c0,0,0,0,0,0c11.6,0,21-9.4,21-21V2H23z"/>
	</g>
</g>
<g id="Forma_1">
	<g>
		<path class="st1" d="M24.4,30.1l-9.5-3.1c-0.2-0.1-0.4-0.1-0.6,0c-0.2,0.1-0.3,0.2-0.4,0.4c-0.5,1.6-0.8,3-0.9,4.7
			c-0.1,1.5,0.3,2.8,1.2,3.8c0.4,0.5,0.9,0.9,1.4,1.2c0.7,0.4,1.6,0.7,2.6,0.8c1.8,0.2,3.4-0.6,4.7-2.1c1.1-1.3,1.8-3,2-5
			C25,30.6,24.7,30.3,24.4,30.1z M18.3,36.5c-2.4-0.2-3.9-1.9-3.8-4.2c0.1-1.3,0.3-2.4,0.7-3.7l8.1,2.6
			C22.7,34.2,20.9,36.8,18.3,36.5z M29.3,8.8c-2.1-1-4.4-1-6.6,0.1c-3.8,1.9-6.7,6.5-7.3,11.5c0,0,0,0.1,0,0.1c0,0.1,0,0.1,0,0.2
			c-0.1,1.1-0.6,2.9-0.7,3.6c-0.1,0.3,0.1,0.7,0.4,0.8c0,0,0.1,0,0.1,0.1l10.7,3.5c0.3,0.1,0.7,0,0.9-0.3l0.3-0.3
			c0.8-1,1.8-2.4,2.4-3.1c1.6-1.9,3.1-4.9,3.6-7.6C33.4,14.3,32.6,10.4,29.3,8.8z M23.4,10.2c1.2-0.6,3.2-1.2,5.2-0.1
			c0.1,0,0.1,0.1,0.2,0.1c1.6,0.9,2.4,2.6,2.7,4.4l-1.9,0.2c-0.2,0-0.5-0.1-0.6-0.2l-1.5-1.3c-0.5-0.5-1.2-0.7-1.9-0.6l-1.9,0.2
			c-0.2,0-0.5-0.1-0.6-0.2l-1.4-1.2C22.2,10.9,22.7,10.5,23.4,10.2z M25.6,27L16.2,24c0.2-0.9,0.5-1.9,0.6-2.8l0.1,0
			c0.2,0,0.5,0.1,0.6,0.2l1.5,1.3c0.5,0.5,1.2,0.7,1.9,0.6l1.9-0.2c0.2,0,0.5,0.1,0.6,0.2l1.5,1.3c0.5,0.5,1.2,0.7,1.9,0.6l0.2,0
			C26.6,25.8,26.1,26.4,25.6,27z M31.3,17c-0.5,2.4-1.6,4.9-3,6.6l-1.8,0.2c-0.2,0-0.5-0.1-0.6-0.2l-1.5-1.3
			c-0.5-0.5-1.2-0.7-1.9-0.6l-1.9,0.2c-0.2,0-0.5-0.1-0.6-0.2l-1.5-1.3c-0.4-0.4-1-0.6-1.5-0.6c0.2-1,0.5-2,0.9-3l0.5,0
			c0.2,0,0.5,0.1,0.6,0.2l1.5,1.3c0.5,0.5,1.2,0.7,1.9,0.6l1.9-0.2c0.2,0,0.5,0.1,0.6,0.2l0.6,0.6c0.3,0.3,0.8,0.3,1.1,0
			c0.3-0.3,0.3-0.8,0-1l-0.6-0.6c-0.5-0.5-1.2-0.7-1.9-0.6l-1.9,0.2c-0.2,0-0.5-0.1-0.6-0.2L20,15.8c-0.4-0.4-0.9-0.6-1.4-0.6
			c0.6-1,1.2-2,2-2.8l1.4,1.2c0.1,0.1,0.3,0.2,0.4,0.3c0.4,0.2,0.9,0.4,1.5,0.3l1.9-0.2c0.2,0,0.5,0.1,0.6,0.2l1.5,1.3
			c0.5,0.5,1.2,0.7,1.9,0.6l1.7-0.2C31.4,16.3,31.4,16.6,31.3,17z M29.3,19.6c0,0-0.1-0.1-0.1-0.1c0,0-0.1-0.1-0.1-0.1
			c-0.1-0.1-0.2-0.1-0.3-0.1c0,0-0.1,0-0.1,0c-0.1,0-0.1,0-0.2,0c-0.1,0-0.1,0-0.1,0c0,0-0.1,0-0.1,0c0,0-0.1,0-0.1,0.1
			c0,0-0.1,0.1-0.1,0.1c0,0-0.1,0.1-0.1,0.1c-0.1,0.2-0.1,0.4-0.1,0.6c0,0,0,0.1,0.1,0.1c0,0,0.1,0.1,0.1,0.1c0,0,0.1,0.1,0.1,0.1
			c0,0,0.1,0.1,0.1,0.1c0,0,0.1,0,0.1,0.1c0,0,0.1,0,0.1,0c0,0,0.1,0,0.2,0c0.1,0,0.1,0,0.1,0c0.2,0,0.4-0.2,0.5-0.3
			c0,0,0-0.1,0.1-0.1c0,0,0-0.1,0-0.1c0,0,0-0.1,0-0.1c0,0,0-0.1,0-0.1C29.3,19.7,29.3,19.7,29.3,19.6z"/>
	</g>
</g>
<g id="birkoshop">
	<text transform="matrix(1 0 0 1 53 32)"><tspan x="0" y="0" class="st2 st3 st4">b</tspan><tspan x="21.6" y="0" class="st2 st3 st4">i</tspan><tspan x="31.2" y="0" class="st2 st3 st4">r</tspan><tspan x="44.9" y="0" class="st2 st3 st4">k</tspan><tspan x="63.5" y="0" class="st2 st3 st4">o</tspan><tspan x="84.1" y="0" class="st2 st3 st4 st5">s</tspan><tspan x="100.7" y="0" class="st2 st3 st4">h</tspan><tspan x="120.3" y="0" class="st2 st3 st4">o</tspan><tspan x="141" y="0" class="st2 st3 st4">p</tspan></text>
</g>
</svg>
